<svg xmlns="http://www.w3.org/2000/svg" width="12.308" height="9.348" viewBox="0 0 12.308 9.348">
  <path id="message-closed-envelope" d="M10.847,45.945H1.461A1.434,1.434,0,0,0,0,47.348V53.89a1.434,1.434,0,0,0,1.461,1.4h9.386a1.434,1.434,0,0,0,1.461-1.4V47.348A1.434,1.434,0,0,0,10.847,45.945Zm0,8.11H1.461c-.118,0-.222-.077-.222-.164V48.213L5.484,51.8a.484.484,0,0,0,.312.114h.717a.484.484,0,0,0,.312-.114l4.245-3.584V53.89C11.069,53.978,10.965,54.055,10.847,54.055ZM6.154,50.681l-4.129-3.5h8.258Z" transform="translate(0 -45.945)" fill="#fff"/>
</svg>
