<svg xmlns="http://www.w3.org/2000/svg" width="12.406" height="12.419" viewBox="0 0 12.406 12.419">
  <path id="phone" d="M9.125,6.846V8.222a.918.918,0,0,1-1,.918,9.08,9.08,0,0,1-3.96-1.409A8.947,8.947,0,0,1,1.412,4.978,9.08,9.08,0,0,1,0,1,.918.918,0,0,1,.917,0H2.293a.918.918,0,0,1,.918.789,5.891,5.891,0,0,0,.321,1.289.918.918,0,0,1-.206.968l-.583.583A7.341,7.341,0,0,0,5.5,6.382L6.078,5.8a.918.918,0,0,1,.968-.206,5.891,5.891,0,0,0,1.289.321.918.918,0,0,1,.789.931Z" transform="matrix(0.966, 0.259, -0.259, 0.966, 2.979, 0.613)" fill="none" stroke="#0ba759" stroke-linecap="round" stroke-linejoin="round" stroke-width="1"/>
</svg>
