<svg id="heart_3_" data-name="heart (3)" xmlns="http://www.w3.org/2000/svg" width="24.375" height="21.519" viewBox="0 0 24.375 21.519">
  <g id="Group_18" data-name="Group 18" transform="translate(0 0)">
    <path id="Path_256" data-name="Path 256" d="M17.9,30a5.771,5.771,0,0,0-3.6,1.246,8.21,8.21,0,0,0-2.109,2.536,8.21,8.21,0,0,0-2.109-2.536A5.771,5.771,0,0,0,6.475,30C2.784,30,0,33.019,0,37.023c0,4.325,3.473,7.285,8.73,11.765.893.761,1.9,1.623,2.956,2.543a.762.762,0,0,0,1,0c1.052-.92,2.064-1.782,2.957-2.543,5.257-4.48,8.729-7.439,8.729-11.764C24.375,33.019,21.592,30,17.9,30Z" transform="translate(0 -30)" fill="red"/>
  </g>
</svg>
