<svg xmlns="http://www.w3.org/2000/svg" width="9.512" height="9.53" viewBox="0 0 9.512 9.53">
  <path id="phone" d="M11.623,9.135V10.57a.956.956,0,0,1-1.043.956,9.465,9.465,0,0,1-4.127-1.468A9.326,9.326,0,0,1,3.584,7.189,9.464,9.464,0,0,1,2.116,3.043.956.956,0,0,1,3.067,2H4.5a.956.956,0,0,1,.956.823,6.141,6.141,0,0,0,.335,1.344.956.956,0,0,1-.215,1.009l-.607.607A7.652,7.652,0,0,0,7.84,8.652l.607-.607A.956.956,0,0,1,9.457,7.83a6.141,6.141,0,0,0,1.344.335.956.956,0,0,1,.823.971Z" transform="translate(-2.112 -2)" fill="#fff"/>
</svg>
