<svg id="visa" xmlns="http://www.w3.org/2000/svg" width="28.431" height="8.62" viewBox="0 0 28.431 8.62">
  <path id="Path_157" data-name="Path 157" d="M184.8,188.523l1.444-8.123H188.5l-1.4,8.123Z" transform="translate(-174.375 -180.129)" fill="#3c58bf"/>
  <path id="Path_158" data-name="Path 158" d="M184.8,188.523l1.85-8.123h1.85l-1.4,8.123Z" transform="translate(-174.375 -180.129)" fill="#293688"/>
  <path id="Path_159" data-name="Path 159" d="M254.9,175.961a5.724,5.724,0,0,0-2.076-.361c-2.256,0-3.881,1.128-3.881,2.753,0,1.218,1.128,1.85,2.031,2.256s1.173.677,1.173,1.038c0,.542-.722.812-1.354.812a4.906,4.906,0,0,1-2.166-.451l-.316-.135-.316,1.85a7.318,7.318,0,0,0,2.572.451c2.392,0,3.971-1.128,3.971-2.843,0-.948-.587-1.67-1.941-2.256-.812-.406-1.309-.632-1.309-1.038,0-.361.406-.722,1.309-.722a4.139,4.139,0,0,1,1.715.316l.226.09.361-1.76Z" transform="translate(-234.01 -175.6)" fill="#3c58bf"/>
  <path id="Path_160" data-name="Path 160" d="M254.9,175.961a5.724,5.724,0,0,0-2.076-.361c-2.256,0-3.475,1.128-3.475,2.753a2.359,2.359,0,0,0,1.625,2.256c.9.406,1.173.677,1.173,1.038,0,.542-.722.812-1.354.812a4.906,4.906,0,0,1-2.166-.451l-.316-.135-.316,1.85a7.318,7.318,0,0,0,2.572.451c2.392,0,3.971-1.128,3.971-2.843,0-.948-.587-1.67-1.941-2.256-.812-.406-1.309-.632-1.309-1.038,0-.361.406-.722,1.309-.722a4.139,4.139,0,0,1,1.715.316l.226.09.361-1.76Z" transform="translate(-234.01 -175.6)" fill="#293688"/>
  <path id="Path_161" data-name="Path 161" d="M362.958,180.4c-.542,0-.948.045-1.173.587l-3.385,7.537h2.437l.451-1.354h2.888l.271,1.354h2.166l-1.9-8.123Zm-1.038,5.415c.135-.406.9-2.392.9-2.392s.181-.5.316-.812l.135.767s.451,2.031.542,2.482h-1.9Z" transform="translate(-338.182 -180.129)" fill="#3c58bf"/>
  <path id="Path_162" data-name="Path 162" d="M363.5,180.4c-.542,0-.948.045-1.173.587l-3.926,7.537h2.437l.451-1.354h2.888l.271,1.354h2.166l-1.9-8.123Zm-1.58,5.415c.181-.451.9-2.392.9-2.392s.181-.5.316-.812l.135.767s.451,2.031.542,2.482h-1.9Z" transform="translate(-338.182 -180.129)" fill="#293688"/>
  <path id="Path_163" data-name="Path 163" d="M54.585,186.841l-.226-1.173A6.542,6.542,0,0,0,51.2,182.1l2.031,7.221h2.437l3.655-8.123H56.886Z" transform="translate(-48.312 -180.884)" fill="#3c58bf"/>
  <path id="Path_164" data-name="Path 164" d="M54.585,186.841l-.226-1.173A6.542,6.542,0,0,0,51.2,182.1l2.031,7.221h2.437l3.655-8.123H57.338Z" transform="translate(-48.312 -180.884)" fill="#293688"/>
  <path id="Path_165" data-name="Path 165" d="M0,180.4l.406.09a7.611,7.611,0,0,1,5.641,4.423l-.812-3.836c-.135-.542-.542-.677-1.038-.677Z" transform="translate(0 -180.129)" fill="#ffbc00"/>
  <path id="Path_166" data-name="Path 166" d="M0,180.4H0c2.888.677,5.28,2.437,6.047,4.468l-.767-3.2a1.1,1.1,0,0,0-1.083-.857Z" transform="translate(0 -180.129)" fill="#f7981d"/>
  <path id="Path_167" data-name="Path 167" d="M0,180.4H0c2.888.677,5.28,2.437,6.047,4.468l-.542-1.76a1.592,1.592,0,0,0-.948-1.309Z" transform="translate(0 -180.129)" fill="#ed7c00"/>
  <g id="Group_151" data-name="Group 151" transform="translate(2.933 1.173)">
    <path id="Path_168" data-name="Path 168" d="M57.6,200.913l-1.534-1.534-.722,1.715-.181-1.128A6.542,6.542,0,0,0,52,196.4l2.031,7.221h2.437Z" transform="translate(-52 -196.4)" fill="#051244"/>
    <path id="Path_169" data-name="Path 169" d="M187.1,291.186l-1.941-1.986-.361,1.986Z" transform="translate(-177.309 -283.965)" fill="#051244"/>
    <path id="Path_170" data-name="Path 170" d="M251.926,274.8h0c.181.181.271.316.226.5,0,.542-.722.812-1.354.812a4.906,4.906,0,0,1-2.166-.451l-.316-.135-.316,1.85a7.317,7.317,0,0,0,2.572.451,4.468,4.468,0,0,0,3.294-1.128Z" transform="translate(-236.943 -270.377)" fill="#051244"/>
    <path id="Path_171" data-name="Path 171" d="M364,225.512h2.121l.451-1.354h2.888l.271,1.354H371.9l-.767-3.294-2.708-2.617.135.722s.451,2.031.542,2.482h-1.9c.18-.451.9-2.392.9-2.392s.18-.5.316-.812" transform="translate(-346.4 -218.291)" fill="#051244"/>
  </g>
</svg>
