<svg xmlns="http://www.w3.org/2000/svg" width="17.794" height="10.379" viewBox="0 0 17.794 10.379">
  <path id="vk" d="M14.765,10.952c-.288-.363-.205-.525,0-.85,0,0,2.378-3.285,2.623-4.4h0c.122-.406,0-.7-.588-.7H14.857a.835.835,0,0,0-.846.542A15.912,15.912,0,0,1,11.619,9.45c-.452.444-.661.586-.908.586-.122,0-.311-.142-.311-.548V5.7c0-.486-.139-.7-.549-.7H6.792a.465.465,0,0,0-.5.438c0,.461.7.567.773,1.865v2.815c0,.617-.112.73-.36.73-.661,0-2.267-2.381-3.218-5.105C3.3,5.214,3.112,5,2.614,5H.667C.112,5,0,5.257,0,5.543c0,.506.661,3.02,3.075,6.341a7.611,7.611,0,0,0,5.936,3.5c1.239,0,1.39-.273,1.39-.742,0-2.166-.112-2.371.509-2.371.288,0,.783.142,1.94,1.236,1.322,1.3,1.539,1.877,2.279,1.877h1.945c.555,0,.836-.273.674-.811C17.378,13.436,14.878,11.108,14.765,10.952Z" transform="translate(0 -5)" fill="#fff"/>
</svg>
