<svg xmlns="http://www.w3.org/2000/svg" width="7.248" height="13.109" viewBox="0 0 7.248 13.109">
  <path id="Path_4427" data-name="Path 4427" d="M6.758,0,5.074,0A2.958,2.958,0,0,0,1.958,3.2V4.67H.265A.265.265,0,0,0,0,4.935V7.071a.265.265,0,0,0,.265.265H1.958v5.388a.265.265,0,0,0,.265.265h2.21a.265.265,0,0,0,.265-.265V7.336h1.98a.265.265,0,0,0,.265-.265V4.935a.265.265,0,0,0-.265-.265H4.7V3.421c0-.6.143-.905.925-.905H6.758a.265.265,0,0,0,.265-.265V.268A.265.265,0,0,0,6.758,0Z" transform="matrix(1, -0.017, 0.017, 1, 0, 0.123)" fill="#fff"/>
</svg>
