<svg id="instagram-logo" xmlns="http://www.w3.org/2000/svg" width="13.069" height="13.069" viewBox="0 0 13.069 13.069">
  <path id="Path_222" data-name="Path 222" d="M9.463,0H3.607A3.611,3.611,0,0,0,0,3.607V9.463a3.611,3.611,0,0,0,3.607,3.607H9.463a3.611,3.611,0,0,0,3.607-3.607V3.607A3.611,3.611,0,0,0,9.463,0ZM11.91,9.463A2.45,2.45,0,0,1,9.463,11.91H3.607A2.45,2.45,0,0,1,1.16,9.463V3.607A2.45,2.45,0,0,1,3.607,1.16H9.463A2.45,2.45,0,0,1,11.91,3.607V9.463Z" transform="translate(0)" fill="#fff"/>
  <path id="Path_223" data-name="Path 223" d="M44.336,40.97A3.368,3.368,0,1,0,47.7,44.338,3.371,3.371,0,0,0,44.336,40.97Zm0,5.575a2.208,2.208,0,1,1,2.208-2.208A2.211,2.211,0,0,1,44.336,46.545Z" transform="translate(-37.801 -37.803)" fill="#fff"/>
  <path id="Path_224" data-name="Path 224" d="M119.771,28.251a.85.85,0,1,0,.6.249A.854.854,0,0,0,119.771,28.251Z" transform="translate(-109.728 -26.067)" fill="#fff"/>
</svg>
