<svg id="linkedin-logo" xmlns="http://www.w3.org/2000/svg" width="12.991" height="12.413" viewBox="0 0 12.991 12.413">
  <path id="LinkedIn" d="M12.991,17.169v4.8H10.207V17.49c0-1.126-.4-1.894-1.411-1.894a1.524,1.524,0,0,0-1.429,1.019,1.905,1.905,0,0,0-.092.679v4.678H4.49s.038-7.589,0-8.376H7.275v1.187l-.018.027h.018v-.027A2.765,2.765,0,0,1,9.785,13.4C11.617,13.4,12.991,14.6,12.991,17.169ZM1.576,9.558a1.451,1.451,0,1,0-.037,2.895h.019a1.452,1.452,0,1,0,.018-2.895ZM.165,21.971H2.95V13.6H.165Z" transform="translate(0 -9.558)" fill="#fff"/>
</svg>
